<svg width="286" height="286" viewBox="0 0 286 286" fill="none" xmlns="http://www.w3.org/2000/svg">
<path d="M214.253 71.4178C195.312 52.4766 169.622 41.8356 142.836 41.8356C116.049 41.8356 90.359 52.4766 71.4178 71.4178C52.4766 90.359 41.8356 116.049 41.8356 142.836C41.8356 169.622 52.4766 195.312 71.4178 214.253L142.836 142.836L214.253 71.4178Z" fill="white" fill-opacity="0.87"/>
<path d="M142.836 243.836C156.099 243.836 169.233 241.223 181.487 236.147C193.74 231.072 204.875 223.632 214.253 214.253C223.632 204.875 231.072 193.74 236.147 181.487C241.223 169.233 243.836 156.099 243.836 142.836L142.836 142.836L142.836 243.836Z" fill="white" fill-opacity="0.87"/>
</svg>
